<?xml version="1.0" encoding="UTF-8" standalone="no"?>
<svg
   xmlns:dc="http://purl.org/dc/elements/1.1/"
   xmlns:cc="http://creativecommons.org/ns#"
   xmlns:rdf="http://www.w3.org/1999/02/22-rdf-syntax-ns#"
   xmlns:svg="http://www.w3.org/2000/svg"
   xmlns="http://www.w3.org/2000/svg"
   xmlns:sodipodi="http://sodipodi.sourceforge.net/DTD/sodipodi-0.dtd"
   xmlns:inkscape="http://www.inkscape.org/namespaces/inkscape"
   width="1000"
   height="350"
   viewBox="0 0 264.58333 92.604172"
   version="1.1"
   id="svg544"
   inkscape:version="1.0.1 (0767f8302a, 2020-10-17)"
   sodipodi:docname="logo.svg">
  <defs
     id="defs538" />
  <sodipodi:namedview
     id="base"
     pagecolor="#484848"
     bordercolor="#666666"
     borderopacity="1.0"
     inkscape:pageopacity="0"
     inkscape:pageshadow="2"
     inkscape:zoom="0.49497475"
     inkscape:cx="762.09524"
     inkscape:cy="208.34453"
     inkscape:document-units="px"
     inkscape:current-layer="layer1"
     inkscape:document-rotation="0"
     showgrid="false"
     units="px"
     inkscape:window-width="1366"
     inkscape:window-height="704"
     inkscape:window-x="0"
     inkscape:window-y="768"
     inkscape:window-maximized="1" />
  <metadata
     id="metadata541">
    <rdf:RDF>
      <cc:Work
         rdf:about="">
        <dc:format>image/svg+xml</dc:format>
        <dc:type
           rdf:resource="http://purl.org/dc/dcmitype/StillImage" />
        <dc:title></dc:title>
      </cc:Work>
    </rdf:RDF>
  </metadata>
  <g
     inkscape:label="Layer 1"
     inkscape:groupmode="layer"
     id="layer1"
     transform="translate(108.68179,-66.237104)">
    <g
       id="g2006"
       transform="matrix(0.58942368,0,0,0.58942368,-44.622171,29.956724)">
      <g
         id="g181"
         style="clip-rule:evenodd;fill:#ffffff;fill-opacity:1;fill-rule:evenodd;image-rendering:optimizeQuality;shape-rendering:geometricPrecision;text-rendering:geometricPrecision"
         transform="matrix(0.01,0,0,0.01,2499.6263,99.602169)">
        <path
           id="Ceamontes_x0020_Vetorial.svg"
           class="fil1"
           d="m -253903,422.3 c 0,0 1006.97,1098.62 994.28,1106.87 -141.88,92.44 -105.61,301.74 -18.57,375.39 16.52,13.99 22.83,-5.39 6.3,16.45 -503.73,665.51 -2561.41,3381.77 -2628.21,3426.42 -10.87,7.24 -11.78,16.58 -18.78,13.75 -189.44,-76.38 -251.13,98.58 -246.23,176.49 4.03,63.84 73.34,126.6 113.48,130.34 12.19,1.14 3.09,8.82 2.41,22.88 -37.9,790.76 -160.61,3323.84 -170.57,3324.51 -37.26,2.49 -100.69,13.23 -114.59,41.54 -4.44,9.02 -11.78,-9.06 -16.53,-13.6 -168.81,-161.36 -1479.2,-1520.35 -1690.38,-1675.67 -18.75,-13.8 47.01,-99.23 -46.25,-202.95 -59.98,-66.72 219.86,-1005.75 397.93,-1612.99 7.42,-25.32 22.18,-16.45 46.99,-18.94 174.18,-17.56 423.41,-214.78 229.85,-535.43 -9.03,-14.97 6.43,-95.76 14.19,-110 293.1,-538.21 1956.84,-3291.49 2562.55,-4389.46 3.06,-5.53 4.82,-18.27 9.13,-15.03 57.96,43.67 122.06,50.23 224.9,43.98 52.64,-3.19 27.71,1671.98 28.67,1723.12 7.44,393.6 57.12,433.32 110.8,-47.48 44.93,-402.42 -3.22,-1363.89 0.93,-1684.51 0.1,-4.34 9.39,2.23 13.44,1.58 109.87,-17.62 133.76,-44.83 176.62,-83.69 9,-8.18 16.26,-14.38 17.64,-13.57 z m -2469.65,8353.94 c -486.84,-487.81 -1344.72,-1347.37 -1344.72,-1347.37 -29.18,45.3 -75.67,67.3 -120.35,67.3 -44.67,0 -108.41,-32.15 -126.29,-58.35 0,0 -1070.39,469.36 -1070.39,469.36 21.45,89.97 -11.94,128.67 -53.6,168.57 -46.49,29.22 -125.1,26.8 -151.92,11.94 0,0 -1017.38,1803.07 -1017.38,1803.07 63.12,48.26 109.61,99.49 134.02,213.85 47.95,222.77 -85.17,423.8 -315.72,443.47 -458.95,39.32 -522.69,-575.1 -148.91,-687.07 97.41,-35.47 173.35,-21.46 268.07,0 0,0 1006.65,-1797.14 1006.65,-1797.14 -67.29,-41.71 -96.48,-182.58 -2.36,-260.31 75.37,-62.26 212.06,-56.6 253.15,21.43 0,0 1065.65,-460.46 1065.65,-460.46 -50.61,-92.33 40.53,-251.95 170.97,-229.3 0,0 421.75,-1602.96 421.75,-1602.96 -276.4,-157.24 -244.25,-469.09 -53.62,-575.12 87.84,-48.54 234.67,-52.72 306.15,-37.8 0,0 2627.48,-4442.52 2627.48,-4442.52 -40.47,-20.86 -122.09,-90.54 -128.62,-172.75 0,0 -1116.89,665.38 -1144.29,626.05 -27.42,-39.33 1106.15,-683.8 1106.15,-683.8 -11.34,-15.52 -10.74,-25.66 -4.15,-40.55 0,0 -1443.33,196 -1443.33,196 -35.15,164.4 -158.43,279.04 -338.94,209.67 -198.05,-76.25 -167.95,-284.73 -157.83,-317.52 0,0 -995.38,-548.58 -995.38,-548.58 -72.07,69.08 -221.89,193.87 -455.68,109.58 -164.12,-58.94 -274.61,-203.7 -255.54,-382.99 14.89,-141.47 116.77,-276.4 255.54,-314.82 89.06,-24.41 175.71,-36.06 264.46,-14.61 0,0 1014.44,-1777.75 1014.44,-1777.75 -100.09,-73.86 -176.31,-153.09 -137.89,-441.11 64.34,-219.52 274.58,-269.54 426.19,-258.8 254.06,52.12 338.63,245.7 316.61,446.76 -15.8,95.6 -46.78,123.88 -115.86,199.84 0,0 453.45,583.32 906.88,1166.62 411.71,529.62 825.08,1059.27 897.31,1152.25 2.23,-1.3 11.02,14.4 13.46,13.07 48.41,-26.2 140.58,-60.86 228.45,-52.92 0,0 -4.74,-2358.85 66.73,-2357.06 71.5,1.79 98.3,2361.52 98.3,2361.52 106.62,5.94 231.12,95.31 246.3,145.05 0,0 1127.6,-656.41 1160.05,-606.99 32.46,49.74 -1115.69,682.32 -1115.69,682.32 73.88,178.13 83.4,279.38 25.01,392.55 0,0 1134.47,620.11 1096.65,681.17 -37.54,60.76 -1125.22,-601.04 -1125.22,-601.04 -2.69,13.7 -4.46,58.37 -62.86,95.32 0,0 1024.59,1099.92 1024.59,1099.92 87.84,-35.47 139.65,-44.68 224.25,-17.59 72.95,25.92 105.43,59.54 174.23,120.92 0,0 1655.38,-612.36 1655.38,-612.36 -32.48,-114.95 -11.33,-188.24 66.68,-266.56 189.72,-189.72 521.52,47.37 394.66,281.46 -100.4,185.25 -383.33,115.57 -423.54,42.91 0,0 -1657.17,627.53 -1657.17,627.53 28.02,178.97 -111.35,315.69 -264.72,326.12 -114.1,7.45 -148.63,-28.61 -148.63,-28.61 0,0 -2676.96,3452.51 -2676.96,3452.51 81.93,70.57 61.33,248.12 -92.01,265.37 0,0 -170.97,3342.31 -170.97,3342.31 177.5,10.69 234.08,213.25 190.01,332.07 -50.33,190.03 -345.2,209.98 -430.68,92.02 -88.15,-128.62 -98.27,-208.16 -27.39,-336.84 0,0 -255.15,-255.67 -327.61,-328.25 z m 22.73,-11371.61 1782.71,2249.06 c 8.76,11.05 24.1,23.61 22.75,23.92 -17.07,4.1 -55.13,27.24 -67.66,56.14 -2.34,5.4 -692.23,-391.94 -930.02,-525.73 -28.1,-15.8 -92.26,-46.31 -121.57,-58.94 -31.7,-13.67 -82.68,-1.95 -24.28,36.32 15.72,10.3 789.54,442.32 1048.86,612.53 10.12,6.64 0.68,5.63 -4.64,14.51 -103.56,172.9 -26.62,349.6 -42,347.89 -6.95,-0.78 -14.06,3.76 -22.78,4.3 -104.52,6.7 -982.76,101.54 -1423.25,159.6 -29.21,3.84 -20.15,28.05 -14.11,1.35 11.99,-53 -98.3,-139.39 -143.72,-162.84 -50.41,-26.02 -167.64,-20.78 -211.15,-1.92 -31.75,13.78 -72.82,41.3 -94.17,73.32 -4.41,6.61 -6.28,6.79 -22.63,-2.31 -191.89,-106.86 -835.51,-467.65 -979.23,-570.25 -3.09,-2.21 4.15,0.05 5.63,-4.75 7.86,-25.37 10.09,-157.99 -6.98,-237.01 -19.35,-89.48 -116.3,-227.57 -162.12,-256.6 -0.62,-0.39 4.62,-10.51 14.43,-28.36 114.15,-207.41 711.94,-1293.66 993.5,-1712.22 2.62,-3.89 11.05,-36.3 22.78,-28.07 113.34,79.59 305.97,38.68 359.41,-18.63 z"
           style="fill:#ffffff;fill-opacity:1" />
      </g>
      <path
         id="Ceamontes_x0020_Vetorial.svg_0"
         class="fil2"
         d="m 67.652,135.01767 5.0109,14.604 -9.417,0.0516 z m 7.4114,23.6178 c -0.4893,-8e-4 -14.2131,-0.0174 -14.2131,-0.0174 0,0 -2.7341,8.0771 -2.7341,8.0771 0,0 -11.282,0 -11.282,0 0,0 15.505,-43.4838 15.505,-43.4838 0,0 12.1936,0 12.1936,0 0,0 15.1895,43.4838 15.1895,43.4838 0,0 -11.9134,0.0179 -11.9134,0.0179 0,0 -2.7372,-8.0771 -2.7455,-8.0776 z"
         style="clip-rule:evenodd;fill:#5daccb;fill-opacity:1;fill-rule:evenodd;stroke-width:0.01;image-rendering:optimizeQuality;shape-rendering:geometricPrecision;text-rendering:geometricPrecision" />
      <path
         id="Ceamontes_x0020_Vetorial.svg_1"
         class="fil2"
         d="m 43.8557,123.21137 c 0,0 0,8.9202 0,8.9202 0,0 -22.0396,0.0148 -22.0396,0.0148 0,0 -0.0032,7.7437 -0.0032,7.7437 0,0 20.2826,-0.0535 20.2826,-0.0535 0,0 -0.0267,8.6908 -0.0267,8.6908 0,0 -20.226,0 -20.226,0 0,0 -0.0267,9.5306 -0.0267,9.5306 0,0 22.9331,0 22.9331,0 0,0 0,8.6372 0,8.6372 0,0 -34.2507,0 -34.2507,0 0,0 0,-43.4838 0,-43.4838 0,0 33.3572,0 33.3572,0 z"
         style="clip-rule:evenodd;fill:#5daccb;fill-opacity:1;fill-rule:evenodd;stroke-width:0.01;image-rendering:optimizeQuality;shape-rendering:geometricPrecision;text-rendering:geometricPrecision" />
      <path
         id="Ceamontes_x0020_Vetorial.svg_2"
         class="fil3"
         d="m 277.3579,142.57067 c 0,0 22.951,0 22.951,0 0,0 0,3.872 0,3.872 0,0 -22.951,0 -22.951,0 0,0 0,17.2563 0,17.2563 0,0 25.9295,0 25.9295,0 0,0 -0.0179,3.8896 -0.0179,3.8896 0,0 -30.0456,0.0179 -30.0456,0.0179 0,0 -0.0534,-44.9904 -0.0534,-44.9904 0,0 29.2115,0 29.2115,0 0,0 0,3.8714 0,3.8714 0,0 -25.0241,0.0119 -25.0241,0.0119 0,0 0,16.0713 0,16.0713 z"
         style="clip-rule:evenodd;fill:#2cce95;fill-opacity:1;fill-rule:evenodd;stroke-width:0.01;image-rendering:optimizeQuality;shape-rendering:geometricPrecision;text-rendering:geometricPrecision" />
      <path
         id="Ceamontes_x0020_Vetorial.svg_3"
         class="fil3"
         d="m 254.1269,126.48747 c 0,0 0.0119,41.1131 0.0119,41.1131 0,0 -4.4676,-0.012 -4.4676,-0.012 0,0 -0.0119,-41.1011 -0.0119,-41.1011 0,0 -13.7001,-0.0119 -13.7001,-0.0119 0,0 0,-3.8595 0,-3.8595 0,0 31.8803,0 31.8803,0 0,0 -0.0122,3.8595 -0.0122,3.8595 0,0 -13.7004,0.0119 -13.7004,0.0119 z"
         style="clip-rule:evenodd;fill:#2cce95;fill-opacity:1;fill-rule:evenodd;stroke-width:0.01;image-rendering:optimizeQuality;shape-rendering:geometricPrecision;text-rendering:geometricPrecision" />
      <path
         id="Ceamontes_x0020_Vetorial.svg_4"
         class="fil3"
         d="m 226.4283,160.73867 c 0,0 0,-38.1408 0,-38.1408 0,0 4.1698,0 4.1698,0 0,0 0.0176,45.0086 0.0176,45.0086 0,0 -4.7651,-0.0355 -4.7651,-0.0355 0,0 -24.7383,-38.1795 -24.7383,-38.1795 0,0 0,38.1795 0,38.1795 0,0 -4.1695,0.0176 -4.1695,0.0176 0,0 0,-44.9725 0,-44.9725 0,0 4.5421,-0.0182 4.5421,-0.0182 0,0 24.9434,38.1408 24.9434,38.1408 z"
         style="clip-rule:evenodd;fill:#2cce95;fill-opacity:1;fill-rule:evenodd;stroke-width:0.01;image-rendering:optimizeQuality;shape-rendering:geometricPrecision;text-rendering:geometricPrecision" />
      <path
         id="Ceamontes_x0020_Vetorial.svg_5"
         class="fil3"
         d="m 120.5276,161.77487 c 0,0 14.3761,-39.1588 14.3761,-39.1588 0,0 5.7604,0.0114 5.7604,0.0114 0,0 -0.012,44.9731 -0.012,44.9731 0,0 -4.1578,-0.012 -4.1578,-0.012 0,0 -0.0119,-38.3548 -0.0119,-38.3548 0,0 -14.1025,38.3429 -14.1025,38.3429 0,0 -3.8333,0 -3.8333,0 0,0 -14.5015,-38.7183 -14.5015,-38.7183 0,0 -0.0387,38.7183 -0.0387,38.7183 0,0 -3.86,0.0119 -3.86,0.0119 0,0 0,-44.9725 0,-44.9725 0,0 5.787,0 5.787,0 0,0 14.5942,39.1588 14.5942,39.1588 z"
         style="clip-rule:evenodd;fill:#2cce95;fill-opacity:1;fill-rule:evenodd;stroke-width:0.01;image-rendering:optimizeQuality;shape-rendering:geometricPrecision;text-rendering:geometricPrecision" />
      <path
         id="Ceamontes_x0020_Vetorial.svg_6"
         class="fil2"
         d="m 4.244,137.80547 c 0,0 -10.4243,0 -10.4243,0 -0.1848,-0.828 -0.5184,-2.3768 -2.3946,-4.116 -2.9904,-2.7699 -7.9909,-2.8299 -11.3061,-0.6195 -5.4057,3.6094 -6.2512,13.7657 -3.9101,19.3291 1.6676,3.9612 4.768,6.7073 9.2712,6.4006 2.3084,-0.1579 4.6108,-1.0781 6.3946,-2.8386 0.5064,-0.4942 1.4982,-1.8879 1.945,-4.4554 0,0 10.4243,0 10.4243,0 -0.7895,4.1905 -1.8588,7.7885 -4.816,11.0171 -6.2367,6.8053 -20.2141,7.133 -27.3505,1.6318 -5.2804,-4.0681 -8.2617,-10.4835 -8.339,-17.1165 -0.0836,-7.2015 0.8844,-13.5873 6.3051,-18.8469 1.9924,-1.9359 3.3326,-2.9279 5.9059,-4.0175 9.6261,-4.0775 23.3026,-1.8856 27.3831,8.8664 0.6789,1.7958 0.8935,2.8561 0.9114,4.7654 z"
         style="clip-rule:evenodd;fill:#5daccb;fill-opacity:1;fill-rule:evenodd;stroke-width:0.01;image-rendering:optimizeQuality;shape-rendering:geometricPrecision;text-rendering:geometricPrecision" />
      <path
         id="Ceamontes_x0020_Vetorial.svg_7"
         class="fil3"
         d="m 339.0096,135.12487 c 0,0 -4.1695,0 -4.1695,0 -0.116,-2.4988 -1.0722,-5.3582 -2.9904,-7.0526 -4.5956,-4.0566 -14.8082,-4.0359 -17.5275,2.2872 -1.6201,3.7648 -0.3513,7.5708 3.2434,9.5604 5.4147,2.9933 19.4337,2.758 22.0666,11.5858 0.5778,1.942 0.5778,2.7849 0.569,4.7654 -0.009,1.6383 -0.1041,2.2965 -0.6048,3.872 -2.4152,7.5976 -10.9214,9.2151 -17.8608,8.3836 -3.0592,-0.3632 -4.7688,-0.6849 -7.4461,-2.3525 -3.0913,-1.9241 -5.078,-5.1257 -5.5484,-8.7115 -0.1966,-0.8281 -0.6615,-2.6867 0,-3.2707 0.6281,-0.4467 2.972,-0.3035 3.7615,-0.3035 0.3245,7.0201 5.105,10.862 11.9134,11.0169 5.2329,0.1159 11.4636,-2.2218 11.6125,-8.3365 0.137,-5.7214 -3.3388,-7.7587 -8.3364,-9.191 -7.2552,-2.0822 -18.0521,-3.0438 -18.168,-12.8489 -0.0356,-3.0706 0.1997,-5.5038 2.201,-8.0415 5.0484,-6.4092 17.9059,-6.6087 23.6245,-1.0603 2.6238,2.5437 3.5827,6.1355 3.66,9.6977 z"
         style="clip-rule:evenodd;fill:#2cce95;fill-opacity:1;fill-rule:evenodd;stroke-width:0.01;image-rendering:optimizeQuality;shape-rendering:geometricPrecision;text-rendering:geometricPrecision" />
      <g
         id="_1892585844448"
         style="clip-rule:evenodd;fill:#ffffff;fill-opacity:1;fill-rule:evenodd;image-rendering:optimizeQuality;shape-rendering:geometricPrecision;text-rendering:geometricPrecision"
         transform="matrix(0.01,0,0,0.01,2499.6263,99.602169)">
        <path
           class="fil4"
           d="m -249050.99,9008.95 c -39.88,173.52 -108.61,303.78 -205.05,390.74 -96.84,86.95 -222.15,130.62 -375.56,130.62 -202.39,0 -358.47,-74.04 -468.58,-221.76 -110.12,-148.09 -165.19,-358.08 -165.19,-630.35 0,-264.66 55.45,-472.38 166.33,-623.51 110.88,-150.76 262.01,-226.32 453.39,-226.32 152.65,0 276.45,41.38 371.37,124.17 94.94,82.78 159.49,205.43 193.66,367.96 l -166.31,43.28 c -25.82,-123.02 -71.77,-217.2 -137.84,-282.51 -66.07,-65.31 -147.34,-97.97 -244.55,-97.97 -144.67,0 -255.93,60.75 -334.16,182.65 -78.23,121.51 -117.34,294.67 -117.34,519.47 0,219.48 39.88,389.21 119.24,508.45 79.36,119.62 191.76,179.23 337.19,179.23 107.47,0 196.7,-34.55 267.34,-104.04 71,-69.5 117.33,-168.59 139.74,-296.95 z m 316.69,-210 h 580.98 c -1.52,-113.53 -28.1,-202.78 -79.74,-268.46 -51.27,-65.69 -120.37,-98.36 -206.19,-98.36 -89.24,0 -159.12,31.9 -210.37,96.08 -51.26,64.17 -79.37,154.55 -84.68,270.74 z m 661.11,369.1 120.37,75.94 c -46.7,94.94 -108.99,165.19 -186.83,211.14 -77.85,45.57 -174.29,68.35 -289.34,68.35 -154.94,0 -273.41,-52.79 -355.43,-157.96 -82.02,-105.19 -123.03,-258.61 -123.03,-459.48 0,-191.38 41.38,-341.75 124.16,-451.12 82.79,-109.36 196.32,-164.04 341.38,-164.04 146.58,0 260.88,52.79 342.13,157.96 81.27,105.19 121.9,252.15 121.9,441.24 v 50.14 h -758.69 v 38.72 c 0,123.42 29.61,221.39 88.46,294.3 58.87,72.52 137.47,108.97 235.44,108.97 74.81,0 141.26,-18.21 199.74,-55.05 58.09,-36.83 104.8,-90 139.74,-159.11 z m 361.87,334.92 V 8311.39 h 153.04 v 180.75 c 64.93,-68.74 129.49,-119.61 193.28,-152.27 63.79,-32.67 130.62,-48.99 200.11,-48.99 99.49,0 175.82,28.86 229.73,86.57 53.55,58.1 80.52,139.37 80.52,243.79 v 881.73 h -161.77 v -819.45 c 0,-88.85 -14.81,-152.66 -44.81,-191.38 -30,-38.36 -78.99,-57.72 -146.2,-57.72 -59.24,0 -116.95,15.19 -173.15,45.18 -56.2,30.01 -112.03,74.81 -166.71,134.81 v 888.56 z m 1693.21,-143.54 v 139.37 c -24.3,8.34 -50.88,14.42 -79.35,18.6 -28.49,4.18 -60.77,6.08 -96.07,6.08 -89.63,0 -157.21,-19.36 -202.78,-58.1 -45.57,-38.35 -68.35,-96.45 -68.35,-173.92 v -838.82 h -177.72 v -141.25 h 177.72 v -385.04 h 173.15 v 385.04 h 271.13 v 141.25 h -271.13 v 763.26 c 0,68.35 10.63,112.4 32.28,132.14 21.27,19.75 63.03,29.63 124.55,29.63 29.61,0 66.45,-5.71 110.88,-17.09 z m 225.94,143.54 V 8311.39 h 168.6 v 271.5 c 40.64,-97.97 89.24,-170.12 145.06,-216.07 56.2,-45.95 122.66,-69.1 199.74,-69.1 10.63,0 18.22,0 23.53,0.37 5.33,0.38 9.88,1.15 14.44,1.9 l 1.14,164.04 h -21.27 c -81.64,0 -153.41,31.91 -215.3,96.07 -61.9,64.18 -110.89,157.6 -147.34,279.87 v 663 z m 797.81,-597.3 c 0,155.29 28.1,274.15 84.69,356.18 56.19,81.64 137.45,122.65 243.4,122.65 105.17,0 185.69,-41.01 241.88,-122.65 55.82,-82.03 83.93,-200.12 83.93,-354.29 0,-154.55 -27.73,-272.65 -83.54,-353.9 -55.45,-80.89 -136.33,-121.53 -242.27,-121.53 -105.95,0 -187.21,40.64 -243.4,121.53 -56.59,81.25 -84.69,198.59 -84.69,352.01 z m -168.6,0.37 c 0,-195.18 43.3,-346.31 130.25,-453.78 86.57,-107.46 208.85,-161.38 366.06,-161.38 157.21,0 279.1,53.92 366.43,161.38 86.96,107.47 130.64,258.6 130.64,453.78 0,195.93 -43.68,347.83 -130.64,455.67 -87.33,107.84 -209.22,161.77 -366.43,161.77 -157.21,0 -279.49,-53.93 -366.06,-161.77 -86.95,-107.84 -130.25,-259.74 -130.25,-455.67 z m 2628.87,-295.8 c -42.16,-62.66 -88.48,-108.61 -138.98,-138.23 -50.51,-29.63 -107.09,-44.43 -170.12,-44.43 -97.21,0 -173.15,40.25 -227.08,121.14 -54.31,80.88 -81.26,194.8 -81.26,341.76 0,164.79 26.95,287.82 81.26,369.47 53.93,81.64 135.56,122.26 244.54,122.26 60.39,0 115.07,-14.8 164.42,-44.42 48.99,-29.62 91.52,-74.05 127.22,-132.52 z m 164.04,-754.53 v 1276.27 c 0,101.38 1.52,177.71 4.17,228.97 2.67,50.89 6.46,98.35 11.78,142.02 h -126.83 l -38.74,-149.62 c -44.43,59.25 -93.02,102.15 -145.43,128.36 -52.02,26.2 -114.68,39.49 -187.59,39.49 -148.46,0 -263.91,-54.3 -346.31,-162.91 -82.39,-108.59 -123.4,-260.86 -123.4,-456.81 0,-194.8 41.38,-345.55 124.55,-451.49 83.15,-105.95 201.24,-159.11 354.28,-159.11 70.63,0 131.39,13.29 183.03,39.49 51.64,26.2 93.79,65.69 126.45,118.47 v -593.13 z m 446.94,943.24 h 580.98 c -1.52,-113.53 -28.11,-202.78 -79.75,-268.46 -51.26,-65.69 -120.36,-98.36 -206.18,-98.36 -89.25,0 -159.12,31.9 -210.37,96.08 -51.26,64.17 -79.37,154.55 -84.68,270.74 z m 661.11,369.1 120.36,75.94 c -46.7,94.94 -108.98,165.19 -186.82,211.14 -77.85,45.57 -174.29,68.35 -289.35,68.35 -154.93,0 -273.4,-52.79 -355.42,-157.96 -82.03,-105.19 -123.04,-258.61 -123.04,-459.48 0,-191.38 41.39,-341.75 124.17,-451.12 82.78,-109.36 196.32,-164.04 341.38,-164.04 146.57,0 260.87,52.79 342.13,157.96 81.27,105.19 121.9,252.15 121.9,441.24 v 50.14 h -758.7 v 38.72 c 0,123.42 29.62,221.39 88.47,294.3 58.86,72.52 137.47,108.97 235.43,108.97 74.81,0 141.27,-18.21 199.74,-55.05 58.1,-36.83 104.8,-90 139.75,-159.11 z m 1081.45,334.92 V 7855.71 h 972.86 v 154.93 h -790.58 V 8562 h 560.48 v 152.66 h -560.48 v 631.1 h 829.32 v 157.21 z m 1122.86,-204.67 132.53,-105.18 c 46.7,64.16 98.34,112.01 154.54,143.91 56.58,31.51 118.1,47.47 184.55,47.47 72.91,0 130.64,-18.23 174.3,-55.07 43.3,-36.45 64.93,-85.05 64.93,-145.81 0,-90.38 -90.75,-161.38 -272.26,-213.41 -40.63,-11.77 -72.15,-20.88 -94.55,-27.72 -101,-30.38 -176.19,-72.52 -225.95,-126.07 -49.74,-53.92 -74.79,-120.37 -74.79,-199.74 0,-96.45 33.41,-174.67 100.24,-235.04 66.83,-60.38 153.41,-90.76 259.35,-90.76 88.48,0 167.84,16.32 238.48,48.99 70.25,32.66 133.66,82.4 190.24,149.98 l -109.74,108.61 c -44.43,-56.97 -92.27,-99.87 -143.93,-128.34 -51.26,-28.49 -106.32,-42.54 -164.79,-42.54 -61.52,0 -110.51,15.57 -146.96,47.08 -36.07,31.53 -54.3,73.67 -54.3,126.45 0,25.82 5.31,49.37 15.57,71.02 10.25,21.26 25.06,38.73 44.42,52.01 36.47,26.22 104.05,52.41 203.54,79.38 48.23,12.52 85.83,23.15 112.4,32.27 101.01,31.89 174.3,74.05 220.24,127.21 45.95,53.16 69.12,120.76 69.12,203.15 0,108.22 -38.73,194.8 -115.82,259.74 -77.08,64.93 -180.75,97.59 -310.62,97.59 -93.42,0 -179.61,-19.75 -258.59,-59.24 -78.98,-39.12 -143.16,-94.55 -192.15,-165.94 z m 1606.25,61.13 v 139.37 c -24.3,8.34 -50.88,14.42 -79.35,18.6 -28.49,4.18 -60.77,6.08 -96.07,6.08 -89.63,0 -157.21,-19.36 -202.78,-58.1 -45.57,-38.35 -68.35,-96.45 -68.35,-173.92 v -838.82 h -177.72 v -141.25 h 177.72 v -385.04 h 173.15 v 385.04 h 271.13 v 141.25 h -271.13 v 763.26 c 0,68.35 10.63,112.4 32.28,132.14 21.27,19.75 63.03,29.63 124.55,29.63 29.61,0 66.45,-5.71 110.88,-17.09 z m 1071.22,-1048.04 v 1191.58 h -149.62 v -179.99 c -65.31,69.11 -130.24,119.62 -194.8,151.9 -64.54,32.26 -132.14,48.6 -202.77,48.6 -98.73,0 -175.06,-28.86 -228.6,-86.2 -53.92,-57.72 -80.87,-138.98 -80.87,-244.16 v -881.73 h 164.04 v 820.21 c 0,89.23 15.19,152.65 45.18,190.99 30,38.36 78.6,57.35 146.2,57.35 58.48,0 115.81,-14.81 171.26,-44.05 55.81,-29.24 110.88,-74.42 165.94,-135.18 v -889.32 z m 1064.38,298.85 c -42.15,-62.66 -88.48,-108.61 -138.97,-138.23 -50.51,-29.63 -107.09,-44.43 -170.13,-44.43 -97.21,0 -173.15,40.25 -227.08,121.14 -54.3,80.88 -81.25,194.8 -81.25,341.76 0,164.79 26.95,287.82 81.25,369.47 53.93,81.64 135.56,122.26 244.55,122.26 60.38,0 115.06,-14.8 164.42,-44.42 48.98,-29.62 91.52,-74.05 127.21,-132.52 z m 164.04,-754.53 v 1276.27 c 0,101.38 1.53,177.71 4.18,228.97 2.66,50.89 6.45,98.35 11.77,142.02 h -126.83 l -38.73,-149.62 c -44.43,59.25 -93.03,102.15 -145.44,128.36 -52.02,26.2 -114.68,39.49 -187.59,39.49 -148.46,0 -263.9,-54.3 -346.3,-162.91 -82.4,-108.59 -123.41,-260.86 -123.41,-456.81 0,-194.8 41.39,-345.55 124.55,-451.49 83.15,-105.95 201.25,-159.11 354.28,-159.11 70.63,0 131.39,13.29 183.03,39.49 51.64,26.2 93.8,65.69 126.45,118.47 v -593.13 z m 433.27,1049.96 c 0,155.29 28.09,274.15 84.68,356.18 56.19,81.64 137.46,122.65 243.4,122.65 105.18,0 185.7,-41.01 241.88,-122.65 55.83,-82.03 83.94,-200.12 83.94,-354.29 0,-154.55 -27.73,-272.65 -83.55,-353.9 -55.44,-80.89 -136.32,-121.53 -242.27,-121.53 -105.94,0 -187.21,40.64 -243.4,121.53 -56.59,81.25 -84.68,198.59 -84.68,352.01 z m -168.61,0.37 c 0,-195.18 43.3,-346.31 130.26,-453.78 86.57,-107.46 208.85,-161.38 366.06,-161.38 157.2,0 279.09,53.92 366.43,161.38 86.96,107.47 130.63,258.6 130.63,453.78 0,195.93 -43.67,347.83 -130.63,455.67 -87.34,107.84 -209.23,161.77 -366.43,161.77 -157.21,0 -279.49,-53.93 -366.06,-161.77 -86.96,-107.84 -130.26,-259.74 -130.26,-455.67 z m 1111.85,392.26 132.54,-105.18 c 46.7,64.16 98.34,112.01 154.54,143.91 56.58,31.51 118.09,47.47 184.55,47.47 72.91,0 130.63,-18.23 174.29,-55.07 43.3,-36.45 64.94,-85.05 64.94,-145.81 0,-90.38 -90.76,-161.38 -272.26,-213.41 -40.64,-11.77 -72.15,-20.88 -94.55,-27.72 -101.01,-30.38 -176.19,-72.52 -225.95,-126.07 -49.74,-53.92 -74.8,-120.37 -74.8,-199.74 0,-96.45 33.41,-174.67 100.24,-235.04 66.83,-60.38 153.42,-90.76 259.36,-90.76 88.48,0 167.84,16.32 238.48,48.99 70.24,32.66 133.66,82.4 190.24,149.98 l -109.74,108.61 c -44.43,-56.97 -92.28,-99.87 -143.93,-128.34 -51.26,-28.49 -106.32,-42.54 -164.8,-42.54 -61.51,0 -110.5,15.57 -146.95,47.08 -36.07,31.53 -54.31,73.67 -54.31,126.45 0,25.82 5.32,49.37 15.57,71.02 10.25,21.26 25.07,38.73 44.43,52.01 36.46,26.22 104.05,52.41 203.53,79.38 48.24,12.52 85.83,23.15 112.41,32.27 101,31.89 174.29,74.05 220.24,127.21 45.95,53.16 69.12,120.76 69.12,203.15 0,108.22 -38.74,194.8 -115.82,259.74 -77.09,64.93 -180.76,97.59 -310.62,97.59 -93.42,0 -179.61,-19.75 -258.59,-59.24 -78.99,-39.12 -143.17,-94.55 -192.16,-165.94 z m 2054.73,-460.61 h 519.47 l -245.69,-858.57 h -25.82 z m -382.77,665.28 508.45,-1647.26 h 277.2 l 506.17,1647.26 h -191.37 l -148.09,-512.63 h -612.89 l -145.81,512.63 z m 1376.12,-204.67 132.53,-105.18 c 46.7,64.16 98.34,112.01 154.54,143.91 56.58,31.51 118.1,47.47 184.55,47.47 72.92,0 130.64,-18.23 174.3,-55.07 43.3,-36.45 64.93,-85.05 64.93,-145.81 0,-90.38 -90.75,-161.38 -272.26,-213.41 -40.63,-11.77 -72.14,-20.88 -94.55,-27.72 -101,-30.38 -176.19,-72.52 -225.95,-126.07 -49.74,-53.92 -74.79,-120.37 -74.79,-199.74 0,-96.45 33.41,-174.67 100.24,-235.04 66.83,-60.38 153.41,-90.76 259.35,-90.76 88.48,0 167.84,16.32 238.48,48.99 70.25,32.66 133.66,82.4 190.24,149.98 l -109.74,108.61 c -44.43,-56.97 -92.27,-99.87 -143.93,-128.34 -51.26,-28.49 -106.32,-42.54 -164.79,-42.54 -61.52,0 -110.51,15.57 -146.96,47.08 -36.07,31.53 -54.3,73.67 -54.3,126.45 0,25.82 5.31,49.37 15.57,71.02 10.25,21.26 25.06,38.73 44.42,52.01 36.47,26.22 104.05,52.41 203.54,79.38 48.23,12.52 85.83,23.15 112.4,32.27 101.01,31.89 174.3,74.05 220.24,127.21 45.95,53.16 69.12,120.76 69.12,203.15 0,108.22 -38.73,194.8 -115.82,259.74 -77.08,64.93 -180.75,97.59 -310.62,97.59 -93.42,0 -179.61,-19.75 -258.59,-59.24 -78.98,-39.12 -143.16,-94.55 -192.15,-165.94 z m 1606.25,61.13 v 139.37 c -24.3,8.34 -50.88,14.42 -79.35,18.6 -28.49,4.18 -60.77,6.08 -96.07,6.08 -89.63,0 -157.21,-19.36 -202.78,-58.1 -45.57,-38.35 -68.35,-96.45 -68.35,-173.92 v -838.82 h -177.72 v -141.25 h 177.72 v -385.04 h 173.15 v 385.04 h 271.13 v 141.25 h -271.13 v 763.26 c 0,68.35 10.63,112.4 32.28,132.14 21.27,19.75 63.03,29.63 124.55,29.63 29.61,0 66.45,-5.71 110.88,-17.09 z m 225.94,143.54 V 8311.39 h 168.6 v 271.5 c 40.64,-97.97 89.24,-170.12 145.06,-216.07 56.2,-45.95 122.66,-69.1 199.74,-69.1 10.63,0 18.22,0 23.53,0.37 5.33,0.38 9.88,1.15 14.44,1.9 l 1.14,164.04 h -21.27 c -81.64,0 -153.41,31.91 -215.3,96.07 -61.9,64.18 -110.89,157.6 -147.34,279.87 v 663 z m 797.81,-597.3 c 0,155.29 28.1,274.15 84.69,356.18 56.18,81.64 137.45,122.65 243.4,122.65 105.17,0 185.69,-41.01 241.88,-122.65 55.82,-82.03 83.93,-200.12 83.93,-354.29 0,-154.55 -27.73,-272.65 -83.54,-353.9 -55.45,-80.89 -136.33,-121.53 -242.27,-121.53 -105.95,0 -187.22,40.64 -243.4,121.53 -56.59,81.25 -84.69,198.59 -84.69,352.01 z m -168.6,0.37 c 0,-195.18 43.3,-346.31 130.25,-453.78 86.57,-107.46 208.85,-161.38 366.06,-161.38 157.21,0 279.1,53.92 366.43,161.38 86.96,107.47 130.64,258.6 130.64,453.78 0,195.93 -43.68,347.83 -130.64,455.67 -87.33,107.84 -209.22,161.77 -366.43,161.77 -157.21,0 -279.49,-53.93 -366.06,-161.77 -86.95,-107.84 -130.25,-259.74 -130.25,-455.67 z m 1255.39,596.93 V 8311.39 h 153.03 v 180.75 c 64.94,-68.74 129.49,-119.61 193.28,-152.27 63.79,-32.67 130.62,-48.99 200.12,-48.99 99.48,0 175.81,28.86 229.73,86.57 53.55,58.1 80.51,139.37 80.51,243.79 v 881.73 h -161.77 v -819.45 c 0,-88.85 -14.81,-152.66 -44.8,-191.38 -30.01,-38.36 -78.99,-57.72 -146.2,-57.72 -59.24,0 -116.95,15.19 -173.15,45.18 -56.21,30.01 -112.03,74.81 -166.71,134.81 v 888.56 z m 1280.83,-597.3 c 0,155.29 28.09,274.15 84.68,356.18 56.19,81.64 137.46,122.65 243.4,122.65 105.18,0 185.7,-41.01 241.88,-122.65 55.83,-82.03 83.94,-200.12 83.94,-354.29 0,-154.55 -27.74,-272.65 -83.55,-353.9 -55.44,-80.89 -136.32,-121.53 -242.27,-121.53 -105.94,0 -187.21,40.64 -243.4,121.53 -56.59,81.25 -84.68,198.59 -84.68,352.01 z m -168.61,0.37 c 0,-195.18 43.3,-346.31 130.26,-453.78 86.57,-107.46 208.85,-161.38 366.06,-161.38 157.2,0 279.09,53.92 366.43,161.38 86.96,107.47 130.63,258.6 130.63,453.78 0,195.93 -43.67,347.83 -130.63,455.67 -87.34,107.84 -209.23,161.77 -366.43,161.77 -157.21,0 -279.49,-53.93 -366.06,-161.77 -86.96,-107.84 -130.26,-259.74 -130.26,-455.67 z m 177.72,-740.46 219.1,-387.33 h 197.46 l 219.1,387.33 h -118.84 l -197.85,-269.24 -200.11,269.24 z m 1073.12,1337.39 V 8311.39 h 153.03 v 180.75 c 66.45,-71.01 130.24,-122.65 191,-154.18 60.75,-31.51 126.83,-47.08 197.85,-47.08 73.29,0 134.03,17.09 182.26,51.26 48.23,34.18 83.16,83.92 104.42,150 66.08,-70.26 130.26,-121.52 192.53,-153.41 62.27,-31.9 129.87,-47.85 202.78,-47.85 97.21,0 172.4,28.86 225.17,86.19 53.17,57.35 79.74,138.99 79.74,244.17 v 881.73 h -164.04 v -828.19 c 0,-85.44 -14.81,-146.96 -44.05,-184.16 -29.24,-37.59 -76.71,-56.2 -142.77,-56.2 -60,0 -117.34,14.8 -172.02,44.43 -54.31,29.61 -108.6,74.81 -162.9,135.56 v 888.56 h -157.21 v -824.01 c 0,-85.81 -14.81,-148.1 -44.43,-186.82 -29.61,-38.36 -77.85,-57.72 -144.68,-57.72 -58.47,0 -114.3,14.42 -167.46,42.91 -53.16,28.48 -108.22,74.04 -165.17,137.08 v 888.56 z m 1891.42,-1446.76 v -200.5 h 195.95 v 200.5 z m 13.67,1446.76 V 8311.39 h 168.61 v 1191.58 z m 1382.99,-286.7 c -48.24,103.3 -110.13,180.38 -185.32,230.88 -75.56,50.88 -164.8,76.33 -267.71,76.33 -156.07,0 -274.54,-52.79 -356.18,-157.96 -81.65,-105.19 -122.66,-258.61 -122.66,-459.48 0,-193.67 42.16,-344.79 126.84,-453.78 84.67,-108.97 201.62,-163.65 351.62,-163.65 102.53,0 191.01,28.09 265.44,83.92 74.42,56.18 129.48,135.18 165.17,237.31 l -164.42,52.41 c -23.17,-73.29 -58.1,-129.87 -105.19,-170.11 -47.08,-39.88 -102.13,-60.01 -165.17,-60.01 -98.36,0 -174.3,40.64 -226.7,122.28 -52.79,81.65 -78.98,198.97 -78.98,351.63 0,157.21 26.58,276.06 79.35,356.18 53.16,80.13 131.39,119.99 235.44,119.99 63.03,0 121.51,-20.88 175.44,-62.27 54.3,-41.77 98.73,-100.63 133.66,-176.96 z m 298.83,-310.6 c 0,155.29 28.09,274.15 84.69,356.18 56.18,81.64 137.45,122.65 243.4,122.65 105.17,0 185.69,-41.01 241.88,-122.65 55.82,-82.03 83.93,-200.12 83.93,-354.29 0,-154.55 -27.73,-272.65 -83.54,-353.9 -55.45,-80.89 -136.33,-121.53 -242.27,-121.53 -105.95,0 -187.22,40.64 -243.4,121.53 -56.6,81.25 -84.69,198.59 -84.69,352.01 z m -168.6,0.37 c 0,-195.18 43.29,-346.31 130.25,-453.78 86.57,-107.46 208.85,-161.38 366.06,-161.38 157.21,0 279.1,53.92 366.43,161.38 86.96,107.47 130.64,258.6 130.64,453.78 0,195.93 -43.68,347.83 -130.64,455.67 -87.33,107.84 -209.22,161.77 -366.43,161.77 -157.21,0 -279.49,-53.93 -366.06,-161.77 -86.96,-107.84 -130.25,-259.74 -130.25,-455.67 z m 1111.85,392.26 132.53,-105.18 c 46.7,64.16 98.34,112.01 154.54,143.91 56.58,31.51 118.1,47.47 184.55,47.47 72.91,0 130.63,-18.23 174.3,-55.07 43.29,-36.45 64.93,-85.05 64.93,-145.81 0,-90.38 -90.75,-161.38 -272.26,-213.41 -40.64,-11.77 -72.15,-20.88 -94.55,-27.72 -101.01,-30.38 -176.19,-72.52 -225.95,-126.07 -49.74,-53.92 -74.8,-120.37 -74.8,-199.74 0,-96.45 33.41,-174.67 100.24,-235.04 66.84,-60.38 153.42,-90.76 259.36,-90.76 88.48,0 167.84,16.32 238.48,48.99 70.25,32.66 133.66,82.4 190.24,149.98 l -109.74,108.61 c -44.43,-56.97 -92.28,-99.87 -143.93,-128.34 -51.26,-28.49 -106.32,-42.54 -164.8,-42.54 -61.51,0 -110.5,15.57 -146.95,47.08 -36.07,31.53 -54.3,73.67 -54.3,126.45 0,25.82 5.31,49.37 15.56,71.02 10.26,21.26 25.07,38.73 44.43,52.01 36.46,26.22 104.05,52.41 203.53,79.38 48.24,12.52 85.83,23.15 112.41,32.27 101,31.89 174.29,74.05 220.24,127.21 45.95,53.16 69.12,120.76 69.12,203.15 0,108.22 -38.74,194.8 -115.82,259.74 -77.08,64.93 -180.75,97.59 -310.62,97.59 -93.42,0 -179.61,-19.75 -258.59,-59.24 -78.98,-39.12 -143.16,-94.55 -192.15,-165.94 z m -22138.17,1219.12 c -42.16,-62.66 -88.48,-108.61 -138.98,-138.22 -50.51,-29.63 -107.09,-44.43 -170.12,-44.43 -97.21,0 -173.15,40.25 -227.08,121.14 -54.31,80.87 -81.26,194.8 -81.26,341.75 0,164.8 26.95,287.83 81.26,369.48 53.93,81.64 135.56,122.26 244.54,122.26 60.39,0 115.07,-14.8 164.42,-44.43 48.99,-29.61 91.52,-74.04 127.22,-132.51 z m 164.04,-754.52 v 1276.27 c 0,101.38 1.52,177.71 4.17,228.97 2.67,50.89 6.46,98.34 11.78,142.02 h -126.83 l -38.74,-149.62 c -44.43,59.24 -93.03,102.15 -145.43,128.36 -52.02,26.2 -114.68,39.49 -187.59,39.49 -148.46,0 -263.91,-54.3 -346.31,-162.91 -82.39,-108.6 -123.4,-260.87 -123.4,-456.81 0,-194.8 41.38,-345.55 124.55,-451.5 83.15,-105.94 201.24,-159.1 354.28,-159.1 70.63,0 131.39,13.29 183.03,39.49 51.64,26.2 93.79,65.69 126.45,118.47 V 9762.9 Z m 446.94,943.24 h 580.98 c -1.52,-113.53 -28.11,-202.78 -79.75,-268.46 -51.26,-65.69 -120.37,-98.36 -206.18,-98.36 -89.25,0 -159.12,31.9 -210.37,96.08 -51.26,64.17 -79.37,154.54 -84.68,270.74 z m 661.1,369.1 120.37,75.94 c -46.7,94.94 -108.98,165.19 -186.82,211.13 -77.85,45.58 -174.29,68.35 -289.35,68.35 -154.93,0 -273.4,-52.78 -355.42,-157.96 -82.03,-105.19 -123.04,-258.6 -123.04,-459.47 0,-191.38 41.39,-341.76 124.17,-451.12 82.78,-109.36 196.32,-164.04 341.38,-164.04 146.57,0 260.87,52.78 342.13,157.96 81.27,105.19 121.9,252.15 121.9,441.24 v 50.14 h -758.7 v 38.72 c 0,123.42 29.62,221.39 88.47,294.3 58.86,72.52 137.47,108.97 235.43,108.97 74.81,0 141.27,-18.22 199.74,-55.06 58.1,-36.82 104.8,-90 139.74,-159.1 z m 1081.46,334.92 V 9762.9 h 281.01 l 459.47,1392.46 462.5,-1392.46 h 264.3 v 1647.26 h -175.44 V 9958.84 l -497.07,1451.32 h -122.26 l -497.07,-1451.32 v 1451.32 z m 1933.96,-597.31 c 0,155.3 28.1,274.16 84.69,356.18 56.19,81.65 137.46,122.66 243.4,122.66 105.18,0 185.69,-41.01 241.88,-122.66 55.82,-82.02 83.93,-200.11 83.93,-354.28 0,-154.56 -27.73,-272.65 -83.54,-353.91 -55.45,-80.89 -136.33,-121.52 -242.27,-121.52 -105.94,0 -187.21,40.63 -243.4,121.52 -56.59,81.26 -84.69,198.6 -84.69,352.01 z m -168.6,0.38 c 0,-195.18 43.3,-346.32 130.26,-453.78 86.57,-107.47 208.85,-161.38 366.05,-161.38 157.21,0 279.1,53.91 366.44,161.38 86.96,107.46 130.63,258.6 130.63,453.78 0,195.93 -43.67,347.82 -130.63,455.67 -87.34,107.84 -209.23,161.76 -366.44,161.76 -157.2,0 -279.48,-53.92 -366.05,-161.76 -86.96,-107.85 -130.26,-259.74 -130.26,-455.67 z m 1255.39,596.93 v -1191.59 h 153.04 v 180.76 c 64.93,-68.74 129.49,-119.62 193.28,-152.27 63.79,-32.67 130.62,-48.99 200.11,-48.99 99.49,0 175.82,28.86 229.73,86.57 53.55,58.1 80.52,139.36 80.52,243.79 v 881.73 h -161.77 v -819.45 c 0,-88.85 -14.82,-152.66 -44.81,-191.38 -30,-38.36 -78.99,-57.72 -146.2,-57.72 -59.24,0 -116.95,15.19 -173.15,45.18 -56.2,30 -112.03,74.81 -166.71,134.8 v 888.57 z m 1693.21,-143.54 v 139.37 c -24.3,8.34 -50.88,14.42 -79.36,18.59 -28.48,4.19 -60.76,6.08 -96.06,6.08 -89.63,0 -157.21,-19.36 -202.78,-58.09 -45.58,-38.35 -68.35,-96.45 -68.35,-173.92 v -838.83 h -177.72 v -141.25 h 177.72 v -385.04 h 173.15 v 385.04 h 271.13 v 141.25 h -271.13 v 763.26 c 0,68.36 10.63,112.41 32.28,132.15 21.27,19.75 63.03,29.62 124.55,29.62 29.61,0 66.45,-5.7 110.88,-17.08 z m 298.85,-560.48 h 580.99 c -1.52,-113.53 -28.11,-202.78 -79.75,-268.46 -51.27,-65.69 -120.37,-98.36 -206.19,-98.36 -89.24,0 -159.11,31.9 -210.36,96.08 -51.27,64.17 -79.38,154.54 -84.69,270.74 z m 661.11,369.1 120.37,75.94 c -46.7,94.94 -108.99,165.19 -186.82,211.13 -77.85,45.58 -174.3,68.35 -289.35,68.35 -154.94,0 -273.41,-52.78 -355.43,-157.96 -82.02,-105.19 -123.03,-258.6 -123.03,-459.47 0,-191.38 41.39,-341.76 124.16,-451.12 82.79,-109.36 196.32,-164.04 341.38,-164.04 146.58,0 260.88,52.78 342.13,157.96 81.27,105.19 121.9,252.15 121.9,441.24 v 50.14 h -758.69 v 38.72 c 0,123.42 29.61,221.39 88.46,294.3 58.87,72.52 137.47,108.97 235.44,108.97 74.81,0 141.26,-18.22 199.74,-55.06 58.1,-36.82 104.8,-90 139.74,-159.1 z m 218.33,130.24 132.54,-105.17 c 46.7,64.16 98.34,112.01 154.54,143.91 56.58,31.51 118.09,47.47 184.55,47.47 72.91,0 130.63,-18.23 174.29,-55.07 43.3,-36.45 64.94,-85.05 64.94,-145.81 0,-90.38 -90.76,-161.38 -272.26,-213.41 -40.64,-11.78 -72.15,-20.89 -94.55,-27.72 -101.01,-30.38 -176.2,-72.52 -225.95,-126.07 -49.75,-53.92 -74.8,-120.37 -74.8,-199.74 0,-96.45 33.41,-174.67 100.24,-235.05 66.83,-60.37 153.41,-90.75 259.36,-90.75 88.48,0 167.84,16.32 238.47,48.99 70.25,32.65 133.67,82.4 190.24,149.98 l -109.73,108.61 c -44.43,-56.97 -92.28,-99.88 -143.93,-128.35 -51.27,-28.48 -106.32,-42.53 -164.8,-42.53 -61.51,0 -110.5,15.57 -146.95,47.08 -36.08,31.53 -54.31,73.67 -54.31,126.45 0,25.82 5.32,49.37 15.57,71.02 10.25,21.25 25.07,38.73 44.43,52.01 36.46,26.21 104.05,52.41 203.53,79.37 48.24,12.53 85.83,23.16 112.4,32.28 101.01,31.89 174.3,74.04 220.25,127.2 45.95,53.17 69.12,120.76 69.12,203.16 0,108.22 -38.74,194.8 -115.82,259.74 -77.09,64.93 -180.76,97.58 -310.63,97.58 -93.41,0 -179.61,-19.75 -258.59,-59.24 -78.98,-39.11 -143.16,-94.55 -192.15,-165.94 z m 2952.4,-289.35 c -39.88,173.53 -108.61,303.79 -205.05,390.75 -96.84,86.95 -222.15,130.62 -375.56,130.62 -202.39,0 -358.47,-74.04 -468.58,-221.76 -110.12,-148.09 -165.19,-358.08 -165.19,-630.36 0,-264.66 55.45,-472.37 166.33,-623.5 110.88,-150.76 262.01,-226.33 453.39,-226.33 152.65,0 276.45,41.39 371.37,124.18 94.94,82.78 159.49,205.43 193.66,367.95 l -166.31,43.29 c -25.82,-123.02 -71.77,-217.21 -137.84,-282.52 -66.07,-65.31 -147.34,-97.96 -244.55,-97.96 -144.67,0 -255.93,60.75 -334.16,182.65 -78.23,121.51 -117.34,294.66 -117.34,519.47 0,219.48 39.88,389.21 119.24,508.45 79.36,119.61 191.76,179.23 337.19,179.23 107.47,0 196.7,-34.55 267.34,-104.04 71,-69.5 117.33,-168.6 139.74,-296.96 z m 255.17,494.03 V 9762.9 h 166.32 v 1647.26 z"
           id="path191"
           style="fill:#ffffff;fill-opacity:1" />
        <path
           class="fil4"
           d="m -229626.37,11097.64 v -327.71 c -198.59,40.26 -339.85,85.83 -423.4,137.09 -83.92,51.27 -125.68,116.58 -125.68,195.94 0,54.3 17.47,97.58 52.41,129.49 34.55,31.9 82.02,47.84 142.01,47.84 50.5,0 104.43,-14.81 162.53,-44.43 57.72,-30 121.89,-75.94 192.13,-138.22 z m -6.83,151.52 c -55.44,59.99 -114.68,105.17 -177.71,134.8 -63.04,29.62 -129.87,44.43 -200.5,44.43 -97.21,0 -176.19,-30.38 -236.95,-91.14 -60.75,-60.75 -91.13,-140.12 -91.13,-236.94 0,-124.18 54.68,-223.29 163.66,-298.48 108.99,-74.81 292.02,-137.08 549.46,-186.82 v -86.58 c 0,-54.31 -22.4,-98.73 -66.83,-134.04 -44.42,-35.32 -101.76,-52.78 -172.02,-52.78 -64.54,0 -121.51,15.94 -171.25,47.84 -49.75,31.89 -89.61,78.23 -119.99,138.98 l -144.3,-76.71 c 43.67,-83.92 102.91,-146.95 177.33,-189.86 74.43,-42.53 163.29,-63.79 266.57,-63.79 126.45,0 224.8,31.13 294.67,93.03 69.49,61.89 104.43,148.85 104.43,260.5 v 665.28 c 0,30.38 2.27,60.37 6.46,90 4.17,29.61 10.25,58.1 18.61,85.44 v 17.84 h -182.66 z m 535.04,161 v -1191.59 h 168.6 v 271.51 c 40.63,-97.98 89.23,-170.12 145.06,-216.07 56.2,-45.95 122.65,-69.11 199.74,-69.11 10.63,0 18.22,0 23.53,0.38 5.33,0.38 9.88,1.14 14.44,1.9 l 1.14,164.04 h -21.27 c -81.65,0 -153.42,31.9 -215.31,96.07 -61.89,64.18 -110.88,157.6 -147.33,279.86 v 663.01 z m 797.81,-597.31 c 0,155.3 28.09,274.16 84.68,356.18 56.19,81.65 137.46,122.66 243.4,122.66 105.18,0 185.7,-41.01 241.88,-122.66 55.83,-82.02 83.94,-200.11 83.94,-354.28 0,-154.56 -27.73,-272.65 -83.55,-353.91 -55.44,-80.89 -136.32,-121.52 -242.27,-121.52 -105.94,0 -187.21,40.63 -243.4,121.52 -56.59,81.26 -84.68,198.6 -84.68,352.01 z m -168.61,0.38 c 0,-195.18 43.3,-346.32 130.26,-453.78 86.57,-107.47 208.85,-161.38 366.06,-161.38 157.21,0 279.09,53.91 366.43,161.38 86.96,107.46 130.63,258.6 130.63,453.78 0,195.93 -43.67,347.82 -130.63,455.67 -87.34,107.84 -209.22,161.76 -366.43,161.76 -157.21,0 -279.49,-53.92 -366.06,-161.76 -86.96,-107.85 -130.26,-259.74 -130.26,-455.67 z m 1111.86,392.25 132.53,-105.17 c 46.7,64.16 98.34,112.01 154.54,143.91 56.58,31.51 118.09,47.47 184.55,47.47 72.91,0 130.63,-18.23 174.29,-55.07 43.3,-36.45 64.94,-85.05 64.94,-145.81 0,-90.38 -90.76,-161.38 -272.26,-213.41 -40.64,-11.78 -72.15,-20.89 -94.55,-27.72 -101.01,-30.38 -176.19,-72.52 -225.95,-126.07 -49.74,-53.92 -74.8,-120.37 -74.8,-199.74 0,-96.45 33.41,-174.67 100.24,-235.05 66.83,-60.37 153.42,-90.75 259.36,-90.75 88.48,0 167.84,16.32 238.48,48.99 70.24,32.65 133.66,82.4 190.24,149.98 l -109.74,108.61 c -44.43,-56.97 -92.28,-99.88 -143.93,-128.35 -51.26,-28.48 -106.32,-42.53 -164.8,-42.53 -61.51,0 -110.5,15.57 -146.95,47.08 -36.07,31.53 -54.31,73.67 -54.31,126.45 0,25.82 5.32,49.37 15.57,71.02 10.25,21.25 25.07,38.73 44.43,52.01 36.46,26.21 104.05,52.41 203.53,79.37 48.24,12.53 85.83,23.16 112.41,32.28 101,31.89 174.29,74.04 220.24,127.2 45.95,53.17 69.12,120.76 69.12,203.16 0,108.22 -38.74,194.8 -115.82,259.74 -77.09,64.93 -180.76,97.58 -310.62,97.58 -93.42,0 -179.61,-19.75 -258.59,-59.24 -78.99,-39.11 -143.17,-94.55 -192.15,-165.94 z"
           id="path193"
           style="fill:#ffffff;fill-opacity:1" />
      </g>
      <path
         class="fil5"
         d="m 148.3481,146.24527 c 0,-7.3633 1.8534,-13.2558 5.5504,-17.6674 3.6969,-4.4114 8.7418,-6.6171 15.1249,-6.6171 5.8873,0 10.625,2.1524 14.2328,6.4467 3.5977,4.2943 5.4017,9.8565 5.4017,16.6869 0,7.3419 -1.8237,13.2452 -5.4612,17.6886 -3.6375,4.4435 -8.5932,6.6598 -14.8672,6.6598 -6.0063,0 -10.8332,-2.1524 -14.4904,-6.4787 -3.6574,-4.3156 -5.491,-9.8886 -5.491,-16.7188 z m 4.9359,-0.4583 c 0,5.5517 1.3678,10.123 4.0934,13.7034 2.7356,3.5803 6.373,5.3705 10.9224,5.3705 4.8566,0 8.6428,-1.6943 11.3684,-5.0828 2.7158,-3.3779 4.0736,-8.0239 4.0736,-13.9378 0,-6.0098 -1.3083,-10.7197 -3.9348,-14.1402 -2.6166,-3.4098 -6.3334,-5.1147 -11.1305,-5.1147 -4.6684,0 -8.3951,1.8008 -11.2,5.4131 -2.795,3.6123 -4.1925,8.2049 -4.1925,13.7885 z"
         id="path196"
         style="clip-rule:evenodd;fill:#2cce95;fill-opacity:1;fill-rule:evenodd;stroke-width:0.01;image-rendering:optimizeQuality;shape-rendering:geometricPrecision;text-rendering:geometricPrecision" />
    </g>
  </g>
</svg>
