<?xml version="1.0" encoding="UTF-8" standalone="no"?>
<svg
   xmlns:dc="http://purl.org/dc/elements/1.1/"
   xmlns:cc="http://creativecommons.org/ns#"
   xmlns:rdf="http://www.w3.org/1999/02/22-rdf-syntax-ns#"
   xmlns:svg="http://www.w3.org/2000/svg"
   xmlns="http://www.w3.org/2000/svg"
   xmlns:sodipodi="http://sodipodi.sourceforge.net/DTD/sodipodi-0.dtd"
   xmlns:inkscape="http://www.inkscape.org/namespaces/inkscape"
   width="100"
   height="100"
   viewBox="0 0 26.458333 26.458334"
   version="1.1"
   id="svg875"
   inkscape:version="1.0.1 (0767f8302a, 2020-10-17)"
   sodipodi:docname="favicon.svg"
   inkscape:export-filename="/home/iago/Drive/Audiovisual Projects/CEAMONTES/favicon.png"
   inkscape:export-xdpi="960"
   inkscape:export-ydpi="960">
  <defs
     id="defs869" />
  <sodipodi:namedview
     id="base"
     pagecolor="#474747"
     bordercolor="#666666"
     borderopacity="1.0"
     inkscape:pageopacity="0"
     inkscape:pageshadow="2"
     inkscape:zoom="3.959798"
     inkscape:cx="39.526909"
     inkscape:cy="36.853617"
     inkscape:document-units="px"
     inkscape:current-layer="layer1"
     inkscape:document-rotation="0"
     showgrid="false"
     units="px"
     inkscape:window-width="1366"
     inkscape:window-height="704"
     inkscape:window-x="0"
     inkscape:window-y="768"
     inkscape:window-maximized="1" />
  <metadata
     id="metadata872">
    <rdf:RDF>
      <cc:Work
         rdf:about="">
        <dc:format>image/svg+xml</dc:format>
        <dc:type
           rdf:resource="http://purl.org/dc/dcmitype/StillImage" />
        <dc:title></dc:title>
      </cc:Work>
    </rdf:RDF>
  </metadata>
  <g
     inkscape:label="Layer 1"
     inkscape:groupmode="layer"
     id="layer1">
    <circle
       style="fill:#0a1b29;fill-opacity:1;stroke-width:0.0547256"
       id="path1446"
       cx="13.229167"
       cy="13.229167"
       r="13.229167" />
    <g
       id="g181"
       style="clip-rule:evenodd;fill:#ffffff;fill-opacity:1;fill-rule:evenodd;image-rendering:optimizeQuality;shape-rendering:geometricPrecision;text-rendering:geometricPrecision"
       transform="matrix(0.00172122,0,0,0.00172122,454.58002,5.9504304)">
      <path
         id="Ceamontes_x0020_Vetorial.svg"
         class="fil1"
         d="m -253903,422.3 c 0,0 1006.97,1098.62 994.28,1106.87 -141.88,92.44 -105.61,301.74 -18.57,375.39 16.52,13.99 22.83,-5.39 6.3,16.45 -503.73,665.51 -2561.41,3381.77 -2628.21,3426.42 -10.87,7.24 -11.78,16.58 -18.78,13.75 -189.44,-76.38 -251.13,98.58 -246.23,176.49 4.03,63.84 73.34,126.6 113.48,130.34 12.19,1.14 3.09,8.82 2.41,22.88 -37.9,790.76 -160.61,3323.84 -170.57,3324.51 -37.26,2.49 -100.69,13.23 -114.59,41.54 -4.44,9.02 -11.78,-9.06 -16.53,-13.6 -168.81,-161.36 -1479.2,-1520.35 -1690.38,-1675.67 -18.75,-13.8 47.01,-99.23 -46.25,-202.95 -59.98,-66.72 219.86,-1005.75 397.93,-1612.99 7.42,-25.32 22.18,-16.45 46.99,-18.94 174.18,-17.56 423.41,-214.78 229.85,-535.43 -9.03,-14.97 6.43,-95.76 14.19,-110 293.1,-538.21 1956.84,-3291.49 2562.55,-4389.46 3.06,-5.53 4.82,-18.27 9.13,-15.03 57.96,43.67 122.06,50.23 224.9,43.98 52.64,-3.19 27.71,1671.98 28.67,1723.12 7.44,393.6 57.12,433.32 110.8,-47.48 44.93,-402.42 -3.22,-1363.89 0.93,-1684.51 0.1,-4.34 9.39,2.23 13.44,1.58 109.87,-17.62 133.76,-44.83 176.62,-83.69 9,-8.18 16.26,-14.38 17.64,-13.57 z m -2469.65,8353.94 c -486.84,-487.81 -1344.72,-1347.37 -1344.72,-1347.37 -29.18,45.3 -75.67,67.3 -120.35,67.3 -44.67,0 -108.41,-32.15 -126.29,-58.35 0,0 -1070.39,469.36 -1070.39,469.36 21.45,89.97 -11.94,128.67 -53.6,168.57 -46.49,29.22 -125.1,26.8 -151.92,11.94 0,0 -1017.38,1803.07 -1017.38,1803.07 63.12,48.26 109.61,99.49 134.02,213.85 47.95,222.77 -85.17,423.8 -315.72,443.47 -458.95,39.32 -522.69,-575.1 -148.91,-687.07 97.41,-35.47 173.35,-21.46 268.07,0 0,0 1006.65,-1797.14 1006.65,-1797.14 -67.29,-41.71 -96.48,-182.58 -2.36,-260.31 75.37,-62.26 212.06,-56.6 253.15,21.43 0,0 1065.65,-460.46 1065.65,-460.46 -50.61,-92.33 40.53,-251.95 170.97,-229.3 0,0 421.75,-1602.96 421.75,-1602.96 -276.4,-157.24 -244.25,-469.09 -53.62,-575.12 87.84,-48.54 234.67,-52.72 306.15,-37.8 0,0 2627.48,-4442.52 2627.48,-4442.52 -40.47,-20.86 -122.09,-90.54 -128.62,-172.75 0,0 -1116.89,665.38 -1144.29,626.05 -27.42,-39.33 1106.15,-683.8 1106.15,-683.8 -11.34,-15.52 -10.74,-25.66 -4.15,-40.55 0,0 -1443.33,196 -1443.33,196 -35.15,164.4 -158.43,279.04 -338.94,209.67 -198.05,-76.25 -167.95,-284.73 -157.83,-317.52 0,0 -995.38,-548.58 -995.38,-548.58 -72.07,69.08 -221.89,193.87 -455.68,109.58 -164.12,-58.94 -274.61,-203.7 -255.54,-382.99 14.89,-141.47 116.77,-276.4 255.54,-314.82 89.06,-24.41 175.71,-36.06 264.46,-14.61 0,0 1014.44,-1777.75 1014.44,-1777.75 -100.09,-73.86 -176.31,-153.09 -137.89,-441.11 64.34,-219.52 274.58,-269.54 426.19,-258.8 254.06,52.12 338.63,245.7 316.61,446.76 -15.8,95.6 -46.78,123.88 -115.86,199.84 0,0 453.45,583.32 906.88,1166.62 411.71,529.62 825.08,1059.27 897.31,1152.25 2.23,-1.3 11.02,14.4 13.46,13.07 48.41,-26.2 140.58,-60.86 228.45,-52.92 0,0 -4.74,-2358.85 66.73,-2357.06 71.5,1.79 98.3,2361.52 98.3,2361.52 106.62,5.94 231.12,95.31 246.3,145.05 0,0 1127.6,-656.41 1160.05,-606.99 32.46,49.74 -1115.69,682.32 -1115.69,682.32 73.88,178.13 83.4,279.38 25.01,392.55 0,0 1134.47,620.11 1096.65,681.17 -37.54,60.76 -1125.22,-601.04 -1125.22,-601.04 -2.69,13.7 -4.46,58.37 -62.86,95.32 0,0 1024.59,1099.92 1024.59,1099.92 87.84,-35.47 139.65,-44.68 224.25,-17.59 72.95,25.92 105.43,59.54 174.23,120.92 0,0 1655.38,-612.36 1655.38,-612.36 -32.48,-114.95 -11.33,-188.24 66.68,-266.56 189.72,-189.72 521.52,47.37 394.66,281.46 -100.4,185.25 -383.33,115.57 -423.54,42.91 0,0 -1657.17,627.53 -1657.17,627.53 28.02,178.97 -111.35,315.69 -264.72,326.12 -114.1,7.45 -148.63,-28.61 -148.63,-28.61 0,0 -2676.96,3452.51 -2676.96,3452.51 81.93,70.57 61.33,248.12 -92.01,265.37 0,0 -170.97,3342.31 -170.97,3342.31 177.5,10.69 234.08,213.25 190.01,332.07 -50.33,190.03 -345.2,209.98 -430.68,92.02 -88.15,-128.62 -98.27,-208.16 -27.39,-336.84 0,0 -255.15,-255.67 -327.61,-328.25 z m 22.73,-11371.61 1782.71,2249.06 c 8.76,11.05 24.1,23.61 22.75,23.92 -17.07,4.1 -55.13,27.24 -67.66,56.14 -2.34,5.4 -692.23,-391.94 -930.02,-525.73 -28.1,-15.8 -92.26,-46.31 -121.57,-58.94 -31.7,-13.67 -82.68,-1.95 -24.28,36.32 15.72,10.3 789.54,442.32 1048.86,612.53 10.12,6.64 0.68,5.63 -4.64,14.51 -103.56,172.9 -26.62,349.6 -42,347.89 -6.95,-0.78 -14.06,3.76 -22.78,4.3 -104.52,6.7 -982.76,101.54 -1423.25,159.6 -29.21,3.84 -20.15,28.05 -14.11,1.35 11.99,-53 -98.3,-139.39 -143.72,-162.84 -50.41,-26.02 -167.64,-20.78 -211.15,-1.92 -31.75,13.78 -72.82,41.3 -94.17,73.32 -4.41,6.61 -6.28,6.79 -22.63,-2.31 -191.89,-106.86 -835.51,-467.65 -979.23,-570.25 -3.09,-2.21 4.15,0.05 5.63,-4.75 7.86,-25.37 10.09,-157.99 -6.98,-237.01 -19.35,-89.48 -116.3,-227.57 -162.12,-256.6 -0.62,-0.39 4.62,-10.51 14.43,-28.36 114.15,-207.41 711.94,-1293.66 993.5,-1712.22 2.62,-3.89 11.05,-36.3 22.78,-28.07 113.34,79.59 305.97,38.68 359.41,-18.63 z"
         style="fill:#ffffff;fill-opacity:1" />
    </g>
  </g>
</svg>
